<?xml version="1.0" encoding="UTF-8" standalone="no"?>
<svg
   viewBox="0 0 400 225"
   version="1.1"
   id="svg57"
   sodipodi:docname="icon.svg"
   inkscape:version="1.2.2 (b0a8486541, 2022-12-01)"
   xmlns:inkscape="http://www.inkscape.org/namespaces/inkscape"
   xmlns:sodipodi="http://sodipodi.sourceforge.net/DTD/sodipodi-0.dtd"
   xmlns="http://www.w3.org/2000/svg"
   xmlns:svg="http://www.w3.org/2000/svg">
  <sodipodi:namedview
     id="namedview59"
     pagecolor="#ffffff"
     bordercolor="#000000"
     borderopacity="0.25"
     inkscape:showpageshadow="2"
     inkscape:pageopacity="0.0"
     inkscape:pagecheckerboard="0"
     inkscape:deskcolor="#d1d1d1"
     showgrid="false"
     inkscape:zoom="2.9667058"
     inkscape:cx="198.0311"
     inkscape:cy="89.661739"
     inkscape:window-width="1920"
     inkscape:window-height="1129"
     inkscape:window-x="-8"
     inkscape:window-y="-8"
     inkscape:window-maximized="1"
     inkscape:current-layer="interactive_video" />
  <defs
     id="defs4">
    <style
       id="style2">
      .cls-1 {
        fill: #d4efff;
      }

      .cls-2 {
        fill: #34495e;
      }

      .cls-3 {
        fill: #ecf0f1;
      }

      .cls-4 {
        fill: #2c3e50;
      }

      .cls-5 {
        fill: #2a80bb;
      }

      .cls-6 {
        fill: #3497da;
      }

      .cls-7 {
        fill: #8e44ad;
      }

      .cls-10, .cls-8 {
        opacity: 0.5;
      }

      .cls-9 {
        opacity: 0.25;
      }

      .cls-10 {
        fill: #662f84;
      }

      .cls-11 {
        opacity: 0.2;
      }

      .cls-12 {
        fill: #fff;
      }

      .cls-13 {
        opacity: 0.6;
      }

      .cls-14 {
        opacity: 0.3;
      }

      .cls-15 {
        fill: none;
      }
    </style>
  </defs>
  <title
     id="title6">interactive video</title>
  <g
     id="interactive_video"
     data-name="interactive video">
    <rect
       class="cls-1"
       x="106"
       y="49.5"
       width="195"
       height="109"
       id="rect8" />
    <rect
       class="cls-2"
       x="106"
       y="158.5"
       width="195"
       height="19"
       id="rect10"
       style="fill:#8b0000;fill-opacity:1" />
    <polygon
       class="cls-3"
       points="119.52,167.11 112,171.45 112,162.77 "
       id="polygon12" />
    <rect
       class="cls-4"
       x="124"
       y="165.5"
       width="169"
       height="5"
       id="rect14" />
    <rect
       class="cls-3"
       x="124"
       y="165.5"
       width="52"
       height="5"
       id="rect16" />
    <circle
       class="cls-5"
       cx="130.73"
       cy="73.57"
       r="17.1"
       id="circle18" />
    <polygon
       class="cls-6"
       points="106,145.16 150.46,107.82 172.67,126.49 190.23,111.76 243.87,66.65 289.72,105.45 301,115.29 301,158.5 106,158.5 "
       id="polygon20" />
    <circle
       class="cls-7"
       cx="207.53"
       cy="88.059998"
       r="18.799999"
       id="circle22" />
    <g
       class="cls-8"
       id="g26">
      <path
         class="cls-7"
         d="m 207.53,65.78 a 22.29,22.29 0 1 1 -22.29,22.29 22.31,22.31 0 0 1 22.29,-22.29 m 0,-4 a 26.28,26.28 0 1 0 26.28,26.28 26.28,26.28 0 0 0 -26.28,-26.28 z"
         id="path24" />
    </g>
    <g
       class="cls-9"
       id="g30">
      <path
         class="cls-7"
         d="m 207.53,58.92 a 29.14,29.14 0 1 1 -29.14,29.14 29.18,29.18 0 0 1 29.14,-29.14 m 0,-4 a 33.13,33.13 0 1 0 33.13,33.13 33.13,33.13 0 0 0 -33.13,-33.13 z"
         id="path28" />
    </g>
    <path
       class="cls-10"
       d="m 207.53,97.52 a 18.81,18.81 0 0 1 -18.21,-14.13 18.8,18.8 0 1 0 36.43,0 18.81,18.81 0 0 1 -18.22,14.13 z"
       id="path32" />
    <g
       class="cls-11"
       id="g36">
      <path
         d="m 243,113 v 5.54 L 212,84.28 c 0,0 -4.76,41.31 -6.46,76.13 L 222.4,177.5 H 301 v -7.59 z"
         id="path34" />
    </g>
    <g
       id="_Group_"
       data-name="&lt;Group&gt;">
      <path
         class="cls-3"
         d="m 250.67,119.18 c 0,7.69 0,15.39 0,23.08 a 32.63,32.63 0 0 1 -4.44,16.74 23.22,23.22 0 0 1 -7.15,7.71 17.16,17.16 0 0 1 -9.64,3 c -2.76,0 -5.53,0.08 -8.28,-0.07 a 17.35,17.35 0 0 1 -10.53,-4.53 26.55,26.55 0 0 1 -7.48,-11.11 4.44,4.44 0 0 0 -0.75,-1.3 c -1.94,-2.29 -3.86,-4.61 -5.89,-6.83 a 31.85,31.85 0 0 0 -9.92,-7.15 5.65,5.65 0 0 1 -3.38,-4.59 c -0.29,-2.38 0.89,-4 2.87,-5.15 a 12.1,12.1 0 0 1 6.85,-1.36 17,17 0 0 1 7.87,2.38 l 0.4,0.19 c 0,-0.89 -0.11,-1.66 -0.11,-2.42 0,-11.71 0,-26.15 0,-37.86 a 7.27,7.27 0 0 1 8.55,-7.12 7.1,7.1 0 0 1 6.12,7.41 c 0,3.11 0,9 0,12.08 0,1 0,2.07 0,3.21 a 7.44,7.44 0 0 1 11.49,4.07 7.39,7.39 0 0 1 7,-1.12 7,7 0 0 1 4.7,5.39 l 0.5,-0.31 a 7.4,7.4 0 0 1 10.29,2.29 6.46,6.46 0 0 1 0.93,3.37 z"
         id="path38" />
    </g>
    <path
       class="cls-12"
       d="M 162.2,95.5 H 140.37 A 8.62,8.62 0 0 1 136.56,79 c 0,-0.28 0,-0.48 0,-0.76 a 10.27,10.27 0 0 1 19.74,-3.84 5,5 0 0 1 3.33,-1.23 5.15,5.15 0 0 1 5.14,5.14 5.06,5.06 0 0 1 -0.82,2.77 7.28,7.28 0 0 1 6,7.11 7.38,7.38 0 0 1 -7.75,7.31 z"
       id="path41" />
    <g
       class="cls-13"
       id="g45">
      <path
         class="cls-12"
         d="M 152.86,95.5 H 131 A 8.62,8.62 0 0 1 127.22,79 c 0,-0.28 0,-0.48 0,-0.76 A 10.27,10.27 0 0 1 147,74.4 a 5,5 0 0 1 3.33,-1.23 5.15,5.15 0 0 1 5.14,5.14 5.06,5.06 0 0 1 -0.82,2.77 7.28,7.28 0 0 1 6,7.11 7.38,7.38 0 0 1 -7.79,7.31 z"
         id="path43" />
    </g>
    <g
       class="cls-14"
       id="g49">
      <path
         class="cls-12"
         d="M 143.82,95.5 H 122 A 8.62,8.62 0 0 1 118.19,79 c 0,-0.28 0,-0.48 0,-0.76 a 10.27,10.27 0 0 1 19.78,-3.82 5,5 0 0 1 3.33,-1.23 5.15,5.15 0 0 1 5.14,5.14 5.06,5.06 0 0 1 -0.82,2.77 7.28,7.28 0 0 1 6,7.11 7.38,7.38 0 0 1 -7.8,7.29 z"
         id="path47" />
    </g>
    <rect
       class="cls-15"
       width="400"
       height="225"
       id="rect53"
       x="0"
       y="0" />
    <text
       xml:space="preserve"
       style="font-style:normal;font-variant:normal;font-weight:normal;font-stretch:normal;font-size:20.8606px;line-height:1.25;font-family:sans-serif;-inkscape-font-specification:'sans-serif, Normal';font-variant-ligatures:normal;font-variant-caps:normal;font-variant-numeric:normal;font-feature-settings:normal;text-align:start;letter-spacing:0px;word-spacing:0px;writing-mode:lr-tb;text-anchor:start;isolation:isolate;fill:#000000;fill-opacity:1;stroke:none;stroke-width:1.30378"
       x="164.21471"
       y="82.970444"
       id="text877"
       transform="scale(1.3037846,0.76699787)"><tspan
         sodipodi:role="line"
         id="tspan875"
         x="164.21471"
         y="82.970444"
         style="font-style:normal;font-variant:normal;font-weight:normal;font-stretch:normal;font-size:20.8606px;font-family:sans-serif;-inkscape-font-specification:'sans-serif, Normal';font-variant-ligatures:normal;font-variant-caps:normal;font-variant-numeric:normal;font-feature-settings:normal;text-align:start;writing-mode:lr-tb;text-anchor:start;stroke-width:1.30378">papi Jo</tspan></text>
  </g>
</svg>
